<?xml version="1.0" standalone="no"?>
<!DOCTYPE svg PUBLIC "-//W3C//DTD SVG 20010904//EN"
 "http://www.w3.org/TR/2001/REC-SVG-20010904/DTD/svg10.dtd">
<svg version="1.0" xmlns="http://www.w3.org/2000/svg"
 width="214.000000pt" height="235.000000pt" viewBox="0 0 214.000000 235.000000"
 preserveAspectRatio="xMidYMid meet">

<g transform="translate(0.000000,235.000000) scale(0.100000,-0.100000)"
fill="#000000" stroke="none">
<path d="M1001 2341 c-8 -5 -36 -7 -61 -4 -51 6 -190 -13 -204 -27 -12 -12 -9
-12 29 -1 20 5 34 4 41 -3 7 -8 -2 -12 -35 -13 -25 -1 -48 3 -52 8 -3 6 -16 6
-34 -1 -23 -9 -26 -13 -15 -20 20 -13 33 -12 25 0 -3 6 1 10 9 10 9 0 16 -6
16 -13 0 -8 10 -19 23 -24 20 -10 21 -11 3 -18 -11 -5 -21 -3 -26 6 -13 20
-52 -18 -44 -43 4 -15 1 -18 -12 -16 -19 3 -27 -32 -12 -54 7 -10 9 -9 5 2 -2
8 12 27 31 42 39 31 85 36 116 13 16 -12 22 -12 29 -2 6 8 7 7 3 -5 -7 -22 3
-50 15 -42 5 3 9 0 9 -6 0 -6 5 -8 12 -4 7 4 8 3 4 -5 -4 -6 -12 -9 -17 -6 -5
4 -9 -3 -9 -15 0 -62 -78 -120 -127 -95 -40 20 -63 47 -64 74 -1 25 -2 25 -9
-4 l-8 -30 -1 33 c0 17 -5 32 -11 32 -5 0 -10 16 -10 35 0 19 -4 35 -10 35 -5
0 -10 -16 -10 -35 0 -25 -4 -35 -16 -35 -12 0 -15 -9 -13 -37 1 -21 -1 -45 -4
-53 -3 -8 -8 -28 -10 -45 -2 -16 -3 11 -2 61 2 50 -1 97 -6 105 -5 9 -9 -29
-9 -98 0 -80 4 -113 13 -116 8 -4 7 -6 -3 -7 -10 0 -6 -6 10 -16 23 -14 23
-14 3 -9 -14 4 -23 2 -23 -4 0 -8 79 -11 250 -11 l250 0 0 -35 0 -35 -382 -2
c-211 -1 -354 -4 -318 -8 36 -4 55 -7 43 -8 -13 -1 -23 -6 -23 -12 0 -5 -9
-10 -20 -10 -18 0 -25 -14 -21 -46 2 -13 -78 -24 -80 -12 -1 5 -2 21 -3 37 0
16 -5 33 -10 38 -5 5 -6 3 -2 -5 5 -8 3 -13 -5 -11 -27 3 -40 -1 -33 -12 4 -8
9 -8 13 -1 4 7 12 8 21 2 13 -9 13 -10 0 -10 -12 0 -13 -2 -1 -9 11 -7 10 -10
-5 -15 -16 -5 -19 -14 -16 -51 3 -36 1 -45 -12 -45 -12 0 -16 -10 -16 -42 0
-40 -1 -41 -19 -24 -17 15 -17 21 -6 42 6 13 11 42 10 64 -1 22 1 40 6 40 4 0
7 9 6 19 -1 22 -23 15 -47 -14 -11 -13 -10 -15 3 -10 20 8 33 -31 16 -51 -9
-11 -14 -12 -19 -3 -6 8 -9 8 -14 0 -4 -6 -2 -11 3 -11 6 0 11 -13 11 -28 0
-15 5 -33 11 -39 19 -19 7 -58 -19 -59 -30 -2 -36 10 -34 68 0 26 -3 48 -7 48
-17 0 -19 -29 -5 -76 15 -50 19 -156 5 -119 -22 53 -32 96 -25 106 5 8 3 9 -5
4 -9 -5 -11 -19 -7 -44 5 -26 4 -32 -3 -21 -10 13 -11 13 -11 0 -1 -8 -5 -49
-9 -90 -14 -125 27 -409 57 -403 6 2 9 -4 6 -12 -12 -30 58 -115 121 -148 32
-16 64 -21 158 -25 l117 -4 0 140 c0 176 17 230 94 307 91 91 85 89 456 95
317 5 326 6 370 29 53 27 82 57 113 114 21 41 22 50 22 347 0 298 -1 306 -23
347 -29 55 -109 118 -173 137 -28 9 -85 18 -127 21 -42 3 -102 8 -132 10 -30
3 -62 1 -69 -4z m-54 -17 c-3 -3 -12 -4 -19 -1 -8 3 -5 6 6 6 11 1 17 -2 13
-5z m-77 -14 c11 -8 7 -9 -15 -4 -37 8 -45 14 -19 14 10 0 26 -5 34 -10z m-1
-36 c2 -2 -20 -4 -50 -5 -39 0 -49 -3 -34 -9 30 -13 0 -12 -32 1 l-28 12 25 7
c23 7 109 2 119 -6z m-72 -40 c-3 -3 -12 -4 -19 -1 -8 3 -5 6 6 6 11 1 17 -2
13 -5z m83 -79 c0 -5 -5 -3 -10 5 -8 12 -10 12 -10 1 0 -8 -2 -12 -5 -9 -3 3
-2 13 1 22 5 14 9 15 15 4 5 -7 9 -17 9 -23z m-16 -101 c3 -8 2 -12 -4 -9 -6
3 -10 10 -10 16 0 14 7 11 14 -7z m-186 -45 c3 -12 2 -12 -6 0 -6 8 -15 10
-22 6 -9 -5 -11 -4 -6 4 10 15 28 10 34 -10z m42 -19 c8 -5 11 -10 5 -10 -5 0
-17 5 -25 10 -8 5 -10 10 -5 10 6 0 17 -5 25 -10z m-73 -32 c-3 -8 -6 -5 -6 6
-1 11 2 17 5 13 3 -3 4 -12 1 -19z m68 2 c3 -6 -1 -7 -9 -4 -18 7 -21 14 -7
14 6 0 13 -4 16 -10z m-683 -549 c2 -17 1 -28 -4 -25 -8 5 -12 54 -4 54 2 0 6
-13 8 -29z m15 7 c-3 -8 -6 -5 -6 6 -1 11 2 17 5 13 3 -3 4 -12 1 -19z m32
-48 c0 -10 -3 -8 -9 5 -5 12 -9 14 -9 6 -1 -8 -3 -12 -6 -9 -3 3 -2 13 1 22 5
14 9 15 15 4 5 -7 8 -20 8 -28z"/>
<path d="M601 2253 c-38 -35 -42 -54 -14 -59 27 -4 40 13 23 29 -10 10 -11 8
-6 -8 6 -15 4 -17 -5 -8 -15 15 -2 38 15 24 7 -6 16 -8 20 -4 4 4 4 -1 1 -12
-5 -15 -4 -17 3 -6 13 19 4 41 -14 34 -20 -7 -18 7 4 23 9 7 14 14 10 14 -4 0
-21 -12 -37 -27z"/>
<path d="M551 2174 c0 -11 3 -14 6 -6 3 7 2 16 -1 19 -3 4 -6 -2 -5 -13z"/>
<path d="M248 1793 c7 -3 16 -2 19 1 4 3 -2 6 -13 5 -11 0 -14 -3 -6 -6z"/>
<path d="M281 1753 c-1 -27 15 -39 23 -17 3 8 2 12 -3 9 -5 -3 -12 3 -14 12
-4 14 -5 13 -6 -4z"/>
<path d="M93 1678 c-22 -29 -24 -41 -3 -20 12 13 20 25 17 28 -2 2 -9 -1 -14
-8z"/>
</g>
</svg>
